<?xml version="1.0" encoding="utf-8"?>
<!-- Generator: Adobe Illustrator 19.1.0, SVG Export Plug-In . SVG Version: 6.00 Build 0)  -->
<!DOCTYPE svg PUBLIC "-//W3C//DTD SVG 1.1//EN" "http://www.w3.org/Graphics/SVG/1.1/DTD/svg11.dtd">
<svg version="1.1" id="Layer_1" xmlns="http://www.w3.org/2000/svg" xmlns:xlink="http://www.w3.org/1999/xlink" x="0px" y="0px"
	 width="127.7px" height="89.3px" viewBox="-439 236.2 127.7 89.3" style="enable-background:new -439 236.2 127.7 89.3;"
	 xml:space="preserve">
<style type="text/css">
	.st0{fill:#333132;}
</style>
<path class="st0" d="M-429.8,277.1c-0.2,1.1-0.6,2.1-1.2,3c-0.1,0.1-0.2,0.3-0.3,0.4c-0.2,0.2-0.5,0.3-0.8,0.3
	c-1.1,0.2-2.3,0.1-3.3-0.4c-1.1-0.6-0.5-1.8,0-2.7c0.9-1.9,1.6-4,2.2-6c0.9-2.9,1.8-5.8,2.5-8.7c0.7-3.1,1.2-6.3,2.7-9.1
	c0.3-0.6,1-1,1.8-0.9c0.4,0,0.7,0,1,0.3c0.3,0.2,0.2,0.6,0.3,1c0.1,0.5,0.5,1,0.8,1.4c0.6,0.9,1.4,1.7,2.1,2.5
	c1.5,1.6,3.3,3.1,4.5,4.9c2.5,3.6,3,8.9,1,12.8c0,0,0,0.1,0.2,0.1c0.4-0.3,0.8-0.5,1.2-0.9c0.5-0.6,1-1.1,1.3-1.6
	c0.4-0.7,0.9-1.3,1.2-2.1c0.2-0.3,0.2-0.7,0.2-1c0.2-0.6,0.3-1.3,0.5-1.9c0.2-0.7,0.4-1.6,0.7-2.3c0.1-0.4,0.3-1,0.6-1.4
	c0.3-0.4,0.6-0.7,1-0.9c0.3-0.1,0.6-0.2,0.9-0.3c0.2-0.1,0.5-0.1,0.7-0.1c0.7,0,1.7,0.7,1.5,1.5c-0.2,0.3-0.2,0.6-0.4,0.9
	c-0.4,1.1-0.7,2.2-0.7,3.4c0,0.4,0,0.8,0,1.2c0,0.1,0.1,0.4,0.2,0.5c0.1,0.1,0.4-0.3,0.5-0.3c0.5-0.5,0.9-1.1,1.4-1.5
	c0.7-0.6,1.3-1.3,2-1.7c1.6-1,2.5,1,3,2.1c0,0,0,0.1,0.1,0.1c0,0,0.1,0,0.1,0c0.6-0.5,1.3-1,1.8-1.7c0.1-0.2,0.1-0.2,0.2-0.3
	c0.2-0.5,0.3-1.2,0.4-1.7c0.2-0.6,0.4-1.2,0.6-1.8c0.4-1,1.1-2,1.7-2.9c0.7-1,5.6-6.5,6.8-4c0.1,0.3,0.2,1.4,0,1.7
	c-0.1,0.1-0.2,0.2-0.3,0.2c-1.6,1-3,2.4-3.9,4c-0.9,1.5-2,3.7-1.5,5.5c0.2,0.7,0.7,0.9,1.3,0.5c1.4-0.9,2.3-2.3,3.1-3.7
	c0.8-1.4,1.5-2.9,1.8-4.5c0.4-2.3,0.3-4.6,0.4-7c0-1.2,0.1-2.4,0.3-3.5c0.2-1.1,1.1-1.9,2.2-2.4c1-0.5,2-0.9,3-1.4c0,0,0,0,0.1,0
	c0,0,0.1,0,0.1,0c0.2,0.1,0.3,0.4,0.3,0.6s-0.1,0.5-0.1,0.7c-0.9,2.9-1.2,6-1.6,9c-0.3,1.7-0.3,3.5-0.4,5.3c0,0.1,0,0.3,0.1,0.3
	c0.1,0,0.1,0,0.2,0c0.2,0,0.5-0.1,0.7-0.2c1.6-1.2,2.3-3.3,3-5.1c1.4-3.5,3.8-6.7,6.8-9c0.6-0.4,2.2-1,2.6,0c0.1,0.2,0.1,0.4,0,0.6
	c-0.1,1.1-0.1,2.2-0.2,3.3c-0.1,1-0.2,2,0,3c0,0.1,0.1,0.3,0.2,0.4c0.1,0.1,0.2,0.2,0.4,0.2c0.1,0,0.3-0.1,0.4-0.2
	c1.1-1,2.1-2.2,3.3-3.1c0.3-0.2,0.6-0.4,0.9-0.4c0.3,0,0.6,0,0.8,0.2c0.2,0.1,0.4,0.2,0.5,0.4c0.3,0.4,0.1,1,0.1,1.5
	c0,0.5,0,1,0.1,1.5c0.2,1,0.5,2.2,1.2,3c0.1,0.1,0.3,0.2,0.4,0.2c0.1,0,0.2-0.1,0.3-0.1c0.6-0.4,1.2-0.8,1.8-1.1
	c0.4-0.3,1-0.6,1-1.2c0-0.6-0.3-1.1-0.4-1.7c-0.2-1-0.4-1.9-0.4-2.9c0.1-1.4,0.1-2.7,0.3-4c0.2-1.2,0.6-2.7,1.6-3.4
	c0.6-0.5,1.2-0.4,2-0.3c1,0.1,2,0.2,3,0.3c0.4,0,0.8,0.1,1.2,0.3c0.5,0.3,0.9,0.8,1.1,1.3c0.8,1.6,1,3.5,0.3,5.2
	c-0.8,1.9-1.8,3.8-2.9,5.5c-0.1,0.1-0.2,0.3-0.2,0.5c0,0.3,0.4,0.4,0.6,0.4c0.5,0,1-0.1,1.4-0.4c0.8-0.4,1.3-1,1.9-1.5
	c0.6-0.5,1.1-1.3,1.5-2c0.6-1.2,0.9-2.4,1.1-3.7c0.2-1.3,0.5-2.6,1.3-3.6c0.6-0.8,1.4-1.4,2.3-1.8c0.6-0.3,1.3-0.7,2-0.3
	c0.3,0.1,0.5,0.4,0.5,0.6c0,0.2,0,0.4-0.1,0.6c-0.3,0.9-0.5,1.8-0.7,2.8c-0.2,0.9-0.4,1.8-0.1,2.7c0,0,0,0.1,0.1,0.1
	c0,0,0.1,0,0.1,0c0.7-0.2,1.1-0.9,1.4-1.4c0.4-0.6,0.7-1.2,1.2-1.7c0.9-0.7,2.6-1,3.3,0.2c0.4,0.7,0.6,1.5,0.8,2.3c0,0,0,0.1,0,0.1
	c0,0,0.1,0,0.1,0c0.3-0.1,0.6-0.3,0.8-0.6c0.7-0.8,1.5-1.5,2.3-2.2c0.8-0.6,1.8-1.1,2.7-1.5c0.7-0.3,1.5-0.5,2.2-0.8
	c0.2-0.1,0.4,0.1,0.3,0.4c-0.2,0.4-0.4,0.8-0.7,1.1c-1.1,1-2.4,1.8-3.6,2.7c-1.1,1-2,2.2-2.9,3.4c-0.8,1.1-0.6,2.5-0.6,3.8
	c0,2.2-0.1,4.3-0.1,6.5c0,0.5,0,1,0,1.5c0,1.2-0.1,2.5-0.2,3.7c-0.2,1.4-0.5,2.7-0.9,4c-0.3,1-0.8,1.9-1.3,2.8
	c-0.4,0.8-0.9,1.6-1.7,2.1c-0.7,0.4-1.4,0.5-2.1,0.6c-1.1,0.1-2.2,0.1-3.1-0.3c-2.3-1.1-2.7-4-2.7-6.3c0.1-1.1,0.2-2.2,0.5-3.3
	c0.2-0.7,0.5-1.3,0.7-2c0.5-1.7,1.4-3.2,2.3-4.6c0.8-1.4,1.7-2.8,2.7-4.1c0.6-0.9,2-2.2,1.2-3.3c-0.4,0.6-1,1-1.7,1.4
	c-0.7,0.4-1.4,0.8-2.1,0.9c-1.1,0.2-2.3-0.1-3.2-0.9c0.1,0.1-0.9,1.3-1,1.4c-0.8,1.1-1.6,2.7-3,3.1c-0.5,0.1-1,0.1-1.6,0
	c-1.8-0.3-4-1.3-5.6,0.1c-0.9,0.7-1.5,1.6-2.5,2.2c-2.5,1.6-5.8-0.1-6.3-3c-0.1-0.6,0-1.5-0.3-2.1c-1.1,0.6-1.5,1.7-1.9,2.8
	c-0.2,0.7-0.5,1.4-0.8,2.1c-0.3,0.6-0.6,1.2-1.1,1.6c-0.8,0.7-2.3,0.8-3.1,0.2c-1-0.9-1.3-2.5-1.3-3.7c0-1.4,0.3-2.9,0.4-4.3
	c0-0.2,0-0.4-0.1-0.5c-0.5-0.6-1.4,1.3-1.6,1.6c-0.5,0.8-0.9,1.6-1.1,2.5c-0.4,1.2-0.5,2.4-0.9,3.5c-0.2,0.6-0.4,1.2-0.6,1.9
	c-0.1,0.5-0.3,1-0.6,1.5c-0.8,1.5-2.1,2.9-4,2.6c-1-0.2-1.9-0.8-2.3-1.7c-0.1-0.2-0.2-0.4-0.4-0.3c-0.1,0-0.2,0.1-0.2,0.2
	c-0.3,0.5-0.5,1.1-0.8,1.7c-0.5,1-1.3,1.8-2,2.6c-0.8,0.8-1.7,1.5-2.8,1.9c-0.9,0.3-2,0.4-3,0.2c-1.1-0.3-1.9-0.9-2.5-1.8
	c-0.1-0.1-0.2-0.2-0.3-0.2c-0.1,0-0.1,0.1-0.1,0.1c-1,1.5-0.9,2.9-0.9,4.6c0,1.9-0.1,3.7-0.3,5.6c-0.2,1.7-0.5,3.4-0.7,5.1
	c0,0.7-0.3,1.3-0.4,2c-0.3,2-0.7,4-1.3,5.9c-0.5,1.6-1.3,3.1-2.8,3.8c-0.8,0.4-1.8,0.5-2.7,0.2c-2.7-1-3.5-4.7-3.4-7.2
	c0-1.7,0.1-3.3,0.4-4.9c0.5-2.4,1.8-4.6,3-6.7c0.7-1.2,1.5-2.3,2.3-3.5c1-1.4,1.5-2.8,1.4-4.5l0-0.1c-0.3,0.2-0.6,0.6-0.8,1.1
	c-0.4,0.8-0.7,1.5-1.4,2.3c-1,1.1-2.8,1-3.8,0.1c-0.5-0.4-0.9-1-1.3-1.4c-0.2,0.3-0.4,0.5-0.5,0.8c-0.7,1.1-1.4,2.3-2.2,3.5
	c-0.6,0.9-1.4,1.5-2.2,2.2c-1.5,1-3.2,1.7-5.1,1.9c-1.9,0.2-4.7,0.3-6.3-1c-0.8-0.7-1.1-3-0.7-3.9c0.1-0.4,0.2-0.9,0.5-1.3
	c0.4-1.2,1.6-1.5,2.7-1.8c1.3-0.4,2.5-1.1,3.6-2c0.3-0.3,0.7-0.7,0.8-1.1c0.2-0.4,0.1-0.8,0.1-1.3c-0.1-2.1-0.7-4.2-1.6-6.1
	c-0.3-0.5-0.6-1-0.9-1.5c-0.5-0.7-1-1.7-1.7-2.2c-0.9-0.6-1,1.4-1.2,1.9c-0.3,1.3-0.7,2.6-1,4c-0.7,2.6-1.3,5.3-2,7.9 M-339.7,257.8
	c-0.6,0.4-1,1.5-1.4,2.2c-0.5,0.8-0.9,1.6-1.2,2.5c-0.6,1.6-1,3.3-1.2,5c-0.1,0.7-0.1,1.5,0.3,2.1c0.1,0.2,0.3,0.3,0.4,0.3
	c0.2,0,0.3-0.1,0.4-0.3c0.8-1,1.3-2.2,1.6-3.4c0.6-2.1,1.1-4.3,1.4-6.5C-339.3,259.1-339.3,258.4-339.7,257.8z M-405,281.3
	c-1.6,2.5-2.7,5.1-2.8,8.1c0,0.8,0,2,0.7,2.4C-405.2,288.7-404.2,284.9-405,281.3z M-354,247.1c-0.5-0.3-1.4,2.3-1.5,2.6
	c-0.3,0.9-0.6,1.9-0.8,2.8c-0.1,0.5-0.2,1-0.1,1.5c0.5-0.2,1-0.5,1.4-1c0.4-0.4,0.6-1,0.8-1.5c0.5-1.3,0.9-2.8,0.5-4.1
	C-353.9,247.4-353.9,247.2-354,247.1z"/>
<path class="st0" d="M-331.2,277.6c-3.8,2.6-7.6,5.1-11.4,7.7c-0.7,0.5-1.4,1-1.8,1.7c-0.6,1.1-0.5,2.4-0.4,3.6c0.1,3-0.4,6-1.4,8.8
	c-0.5,1.4-1.2,2.7-2.5,3.5c-1.7,1-4.1,0.6-5.5-0.8c-1.5-1.3-2.2-3.4-2.3-5.4c-0.7,0.5-0.9,1.6-1,2.5c-0.2,1.3-0.3,2.6-0.5,4
	c-0.1,0.9-0.2,1.8-0.6,2.7c-0.4,0.8-1,1.6-1.9,1.8c-1.6,0.4-3.1-1-3.9-2.4c-2-3.9-1-8.5-1.2-12.8c0-0.3,0-0.7-0.3-0.9
	c-0.2-0.2-0.5-0.2-0.7-0.2c-0.8-0.1-1.9,0-2.2,0.8c-0.1,0.3-0.1,0.7,0,1.1c0.6,3.4,0.6,6.8,0.2,10.2c-0.3,2-0.7,4-1.9,5.6
	c-1.2,1.5-3,2.6-4.9,2.7c-1.9,0.1-3.9-0.8-5.1-2.3c-1.4-1.8-1.5-4.3-1.2-6.6c0.4-3.1,1.6-6,3-8.8c0.8-1.6,1.7-3.3,3.3-4.3
	c1.1-0.7,2.4-1,3.7-1.2c1.5-0.3,3.1-0.5,4.6-0.6c1.2-0.1,2.5-0.2,3.4,0.5c1.5,1,1.5,3.3,2.8,4.4c0.2,0.2,0.6,0.4,0.9,0.2
	c0.1-0.1,0.2-0.2,0.2-0.4c0.7-1.6,1.4-3.1,2.1-4.7c0.5-1.1,1.3-2.4,2.5-2.4c0.7,0,1.4,0.6,1.7,1.3c0.4,0.7,0.5,1.4,0.7,2.1
	c0.4,1.5,0.9,2.9,1.7,4.2c0.3,0.5,0.6,0.9,1.2,1c0.7,0,1.1-0.9,1.2-1.6c0.5-2.3,0.7-4.7,0.7-7c0-1,0-2,0.7-2.7
	c0.3-0.3,0.8-0.5,1.3-0.6 M-374.7,293.7c-0.1,0-0.2,0-0.2,0.2c-0.8,1.8-1.6,3.7-2.2,5.6c-0.3,1-0.5,2-0.5,3c0,0.8-0.3,2.4,0.7,2.6
	c0.4,0.1,0.8,0,1.1-0.2c1.3-0.6,2.1-2.1,2.4-3.5c0.3-1.4,0.3-2.9,0-4.3c-0.1-0.7-0.3-1.4-0.6-2.1
	C-374.1,294.8-374.3,293.8-374.7,293.7z"/>
<path class="st0" d="M-390.8,295.9c0.2-1.7,0.3-3.4,0.5-5.2c0.2-2.1,0.7-4.2,1.1-6.3c0.3-1.1,0.6-2.2,0.7-3.3c0.1-0.9,0.9-1.7,1.8-2
	c1.2-0.5,2.4-0.8,3.5-1.6c0.4-0.3,0.9-0.7,1.5-0.7c0.7,0.1,1,0.9,1,1.5c-0.1,1.6-0.9,3.4-1.3,4.9c-0.5,1.7-0.9,3.5-1.2,5.3
	c-0.7,3.5-1.2,7.1-1.5,10.7c-0.2,2.3-0.3,4.5-0.3,6.8c2.1-1.4,3.3-3.7,4.5-5.9c0.9,0.9,0.9,2.3,0.6,3.6c-0.5,2.7-1.7,5.2-3.3,7.3
	c-0.5,0.6-1.1,1.3-1.8,1.5c-1.3,0.4-2.7-0.4-3.8-1.3c-1.4,1.5-2.5,3.2-3.9,4.8c-1.3,1.6-2.9,3-4.9,3.7c-2.1,0.7-4.5,0.3-6.3-0.9
	s-3-3.3-3.2-5.5c-0.2-2.2,0.7-4.4,1.9-6.4c2.5-4.1,6.1-7.4,9.6-10.6c0.2-0.1,0.3-0.3,0.5-0.3c0.3,0,0.6,0.3,0.8,0.5
	c0.6,0.8,1.3,1.8,1.1,2.8c-0.1,0.6-0.5,1.1-0.8,1.5c-2.2,3-4.6,6-5.9,9.5c-0.4,0.9-0.6,2,0.1,2.7c0.8,0.8,2.2,0.3,3.1-0.4
	c2.2-1.6,3.9-4.2,4.4-6.9"/>
<path class="st0" d="M-326.7,278c0.5-2.2,0.7-4.5,1-6.8c0.4-3.1,1-6.1,1.7-9.1c0.1-0.4,0.2-0.9,0.5-1.2c0.3-0.3,0.6-0.5,1-0.7
	c1.5-0.8,3.1-1.5,4.6-2.3c0.2-0.1,0.5-0.2,0.8-0.2c0.5,0,0.9,0.5,0.9,1s-0.1,1-0.2,1.5c-2.7,8.4-4.2,17.1-4.4,25.9
	c0,0.2,0,0.4,0.1,0.5c0.3,0.3,0.7,0,0.9-0.3c1-1.1,1.8-2.3,2.6-3.6c0.3-0.5,0.7-1,1.2-0.9c0.5,0.1,0.6,0.8,0.5,1.4
	c-0.3,3.2-1.6,6.3-3.6,8.9c-0.5,0.6-1,1.1-1.7,1.4c-1.1,0.4-2.3-0.2-3.3-0.9c-0.2-0.2-0.5-0.3-0.8-0.2c-0.1,0-0.2,0.2-0.3,0.3
	c-1.3,1.6-2.5,3.3-3.8,4.8c-1.4,1.5-3.1,2.8-5.1,3.3c-1.9,0.5-4,0.1-5.6-1c-1.6-1.1-2.8-2.8-3.1-4.7c-0.3-1.9,0.1-3.9,0.9-5.7
	c1.2-2.7,3.2-4.9,5.3-7c1.7-1.7,3.5-3.4,5.4-5c0.2-0.1,0.4-0.3,0.6-0.3c0.3,0,0.5,0.3,0.6,0.5c0.3,0.5,0.6,0.9,0.9,1.4
	c0.2,0.3,0.4,0.6,0.4,1c0,0.4-0.2,0.7-0.4,1.1c-2.2,3.7-5.4,6.8-6.7,10.9c-0.2,0.7-0.4,1.4,0,2c0.6,0.9,2.1,0.7,3,0.2
	c2.1-1.2,3.9-3.9,4.5-6.2"/>
<polyline class="st0" points="-343.4,285.7 -336.7,283.4 -331.2,277.6 "/>
</svg>
