<?xml version="1.0" encoding="utf-8"?>
<!-- Generator: Adobe Illustrator 19.1.0, SVG Export Plug-In . SVG Version: 6.00 Build 0)  -->
<!DOCTYPE svg PUBLIC "-//W3C//DTD SVG 1.1//EN" "http://www.w3.org/Graphics/SVG/1.1/DTD/svg11.dtd">
<svg version="1.1" id="Layer_1" xmlns="http://www.w3.org/2000/svg" xmlns:xlink="http://www.w3.org/1999/xlink" x="0px" y="0px"
	 width="163.6px" height="40.6px" viewBox="0 0 163.6 40.6" enable-background="new 0 0 163.6 40.6" xml:space="preserve">
<path d="M6.3,16.8 M5.5,17.9c-0.3,0.4-0.5,0.8-0.8,1.2c0,0,0,0,0,0c-0.4,0.3-0.7,0.7-1.1,1c-0.2,0.1-0.4,0.1-0.6,0.1
	C2,20,1,19.7,0.3,18.9c0,0,0,0,0,0C0,18.5,0,18,0.4,17.6c0,0,0.1-0.1,0.2-0.1c0.7-0.5,1.1-1.1,1.5-1.8c0.2-0.2,0.4-0.5,0.5-0.7
	c0.1-0.2,0.3-0.3,0.4-0.5c0.5-0.7,1-1.4,1.5-2.1c0.3-0.4,0.7-1,1-1.4C6,10.4,6.4,9.7,6.9,9c0.5-0.7,1-1.4,1.4-2.1
	C9.1,5.5,10,4,10.8,2.6c0.5-0.8,1.1-1.4,1.7-2c0.4-0.4,1-0.5,1.6-0.2c0.3,0.1,0.5,0.2,0.7,0.5c0.1,0.1,0.1,0.2,0.1,0.3
	c-0.1,0.1-0.1,0.3-0.1,0.4c0,0.1,0,0.3,0,0.4c0.1,0.4,0.2,0.7,0.3,1.1c0.1,0.4,0.3,0.8,0.4,1.3c0.1,0.2,0.2,0.5,0.4,0.7
	c0.4,0.8,0.9,1.5,1.2,2.3c0.5,1.2,1.2,2.4,1.4,3.7c0.1,0.7,0.1,1.5,0.2,2.3c0,0.1,0,0.3,0,0.4c0,0.9-0.2,1.9-0.5,2.7
	c-0.2,0.4-0.4,0.8-0.7,1.2c-0.1,0.1-0.1,0.2-0.1,0.3c0,0.1,0,0.1-0.1,0.2c-0.3,0.6-0.6,1.2-1.1,1.7C16,20,16,20.1,15.9,20.2
	c0,0,0,0.1,0.1,0.1c0.4-0.1,0.7-0.2,1.1-0.4c0.5-0.3,1-0.6,1.4-0.9c0.5-0.4,1-0.8,1.4-1.3c0.2-0.2,0.3-0.5,0.4-0.7
	c0.3-0.4,0.5-0.9,0.8-1.3c0.3-0.5,0.7-1.1,1.1-1.6c0.2-0.3,0.5-0.7,0.8-0.9c0.5-0.3,1-0.6,1.6-0.4c0.1,0,0.2,0,0.3,0
	c0.6,0,0.9,0.3,1.2,0.8c0.2,0.2,0.2,0.5,0,0.8c-0.2,0.2-0.3,0.4-0.5,0.6c-0.6,0.7-1.1,1.5-1.4,2.4c-0.1,0.3-0.2,0.6-0.3,0.9
	c0,0.1,0,0.2,0,0.4c0.2,0,0.3,0,0.4-0.1c0.3-0.1,0.5-0.3,0.7-0.4c0.6-0.4,1.2-0.6,1.8-0.8c0.4-0.1,0.7-0.3,1-0.5
	c0.1-0.1,0.2-0.1,0.4,0c0.3,0.2,0.5,0.4,0.8,0.6c0.4,0.3,0.5,0.7,0.5,1.1c0,0.3,0,0.5,0,0.8c0.7-0.2,1.4-0.5,1.9-0.9
	c0.1-0.1,0.1-0.1,0.2-0.2c0.6-1,1.2-1.9,2-2.8c0.5-0.6,1-1,1.7-1.4c0.6-0.3,1.1-0.7,1.7-1c0.4-0.2,0.8-0.4,1.3-0.6
	c0.6-0.2,1.3-0.4,1.9-0.6c0.4-0.1,0.7,0.1,1,0.4c0.2,0.2,0.3,0.4,0.2,0.7c-0.1,0.3-0.2,0.6-0.3,0.9c0,0.1-0.1,0.2-0.2,0.2
	c-0.8,0.1-1.4,0.4-2.1,0.7c-1.5,0.8-2.7,1.9-3.7,3.3c-0.3,0.4-0.6,0.7-0.7,1.2c-0.1,0.3-0.1,0.6-0.1,0.9c0,0.4,0.3,0.6,0.7,0.5
	c0.4-0.1,0.8-0.2,1.2-0.4c0.4-0.2,0.7-0.4,1-0.7c0.6-0.4,1.1-0.8,1.6-1.3c0.7-0.6,1.2-1.2,1.7-2c0.2-0.3,0.3-0.6,0.5-0.8
	c0.2-0.3,0.4-0.6,0.4-1c0.1-0.3,0.2-0.5,0.3-0.8c0.2-0.3,0.4-0.7,0.5-1.1c0.1-0.4,0.1-0.8,0.3-1.2c0.2-0.4,0.3-0.8,0.4-1.1
	c0.2-0.6,0.4-1.2,0.7-1.7c0.2-0.6,0.5-1.1,1-1.5C44.7,7,44.9,6.9,45,6.9c0.6-0.2,1.1-0.4,1.7-0.4c0.3,0,0.5,0,0.8-0.1
	c0.5-0.1,0.9-0.1,1.4-0.2c0.2,0.3,0.2,0.6,0,0.9c-0.4,0.6-0.8,1.3-1.2,1.9c-0.3,0.5-0.6,1-0.8,1.6c-0.6,1.3-1.3,2.5-1.9,3.8
	c-0.4,0.8-0.6,1.6-0.9,2.4c-0.1,0.2-0.2,0.4-0.3,0.6c-0.1,0.2-0.1,0.3-0.1,0.5c0.4,0.2,0.8,0.1,1.2-0.1c0.3-0.2,0.6-0.4,0.9-0.7
	c0.5-0.4,0.9-0.8,1.3-1.2c0.1-0.1,0.2-0.2,0.2-0.3c0.1-0.1,0.2-0.3,0.3-0.4c0.5-0.5,0.9-1,1.4-1.5c0.5-0.6,1.1-1.1,1.7-1.5
	c0.8-0.5,1.5-1,2.3-1.5c0.2-0.2,0.5-0.2,0.8-0.4c0.7-0.3,1.5-0.6,2.2-0.8c0.1,0,0.2,0,0.3,0c0.2,0.1,0.5,0.3,0.7,0.4
	c0.2,0.2,0.3,0.4,0.2,0.6c-0.1,0.2-0.1,0.4-0.2,0.6c-0.3,0.9-0.7,1.7-1,2.6c-0.2,0.5-0.3,1-0.5,1.5c-0.1,0.2,0,0.4,0,0.6
	c0,0.2,0.2,0.3,0.4,0.3c0.1,0,0.3-0.1,0.4-0.2c0.8-0.4,1.6-0.8,2.4-1.2c0.4-0.2,0.8-0.3,1.2-0.4c0.1,0,0.3,0,0.4,0.1
	c0.6,0.3,0.9,0.7,0.6,1.4c-0.4,0.9-0.4,1.8-0.4,2.7c0,0.4,0.1,0.9,0.1,1.3c0,0.2,0.1,0.3,0.2,0.5c0.2,0,0.3,0,0.4-0.1
	c0.6-0.3,1.2-0.4,1.8-0.5c0.3-0.1,0.5-0.2,0.8-0.3c0-0.1,0-0.2,0-0.3C63.9,18.8,64,18.4,64,18c0.1-0.9,0.1-1.8,0.4-2.6
	c0.3-0.9,0.6-1.8,1.1-2.7c0.1-0.3,0.2-0.5,0.4-0.8c0.3-0.4,0.7-0.8,1-1.1c0.2-0.2,0.5-0.3,0.7-0.5c0.3-0.2,0.6-0.4,1.1-0.1
	c0.4,0.2,0.8,0.4,1.3,0.6c0.7,0.2,1.2,0.6,1.9,0.8c0.1,0,0.2,0.1,0.3,0.2c0.4,0.6,0.7,1.3,0.6,2.1c0,0.3,0.1,0.6,0,1
	c-0.1,0.5-0.2,1.1-0.6,1.6c-0.2,0.3-0.4,0.5-0.6,0.8c-0.2,0.3-0.5,0.5-0.7,0.7c-0.2,0.2-0.3,0.4-0.5,0.6c-0.3,0.3-0.5,0.6-0.8,0.8
	c-0.3,0.3-0.7,0.5-1,0.9c-0.1,0.2-0.4,0.3-0.5,0.4c-0.1,0-0.2,0.1-0.2,0.1c0,0.4,0,0.5,0.4,0.6c0.7,0.2,1.4,0.1,2.1-0.2
	c0.3-0.1,0.6-0.3,0.9-0.4c0.5-0.2,0.9-0.5,1.2-0.8c0.3-0.3,0.7-0.7,1-1c0.3-0.3,0.6-0.7,0.8-1.2c0.3-0.6,0.6-1.3,1-1.9
	c0.2-0.3,0.4-0.5,0.6-0.8c0.1-0.1,0.2-0.3,0.4-0.4c0.2-0.1,0.4-0.3,0.6-0.4c0.8-0.2,1.6-0.5,2.4-0.6c0.6-0.1,1.2,0.4,1.2,1
	c0,0.1-0.1,0.3-0.2,0.3c-0.4,0.3-0.6,0.8-0.8,1.2c-0.3,0.4-0.5,0.9-0.8,1.4c-0.2,0.4-0.4,0.8-0.4,1.2c0,0.1,0,0.2,0,0.3
	c0.3,0.1,0.5,0,0.8-0.1c0.4-0.3,0.8-0.7,1.2-1c0.2-0.2,0.5-0.3,0.7-0.5c0.2-0.1,0.4-0.1,0.6-0.2c0.1,0,0.2,0,0.3,0
	c0.6-0.2,0.9,0.2,1.4,0.4c0.1,0,0.2,0.2,0.2,0.2c0.1,0.3,0.2,0.6,0.2,0.9c0,0.4,0,0.8,0,1.2c0,0.1,0,0.3-0.1,0.4
	c0.3,0.1,0.4,0,0.6-0.1c0.8-0.4,1.6-0.8,2.5-1.2c0.4-0.2,0.8-0.3,1.2-0.3c0.2,0,0.4,0,0.6,0c0.7-0.1,1.4-0.2,2.1-0.2
	c0.3,0,0.6,0,1-0.1c-0.1,0.1-0.1,0.2-0.2,0.3c-0.6,0.4-1.2,0.8-1.8,1.2c-0.1,0.1-0.2,0.1-0.3,0.1c-0.3,0.1-0.6,0.1-0.9,0.2
	c-0.5,0.1-0.9,0.2-1.4,0.4c-0.1,0-0.3,0.1-0.4,0.2c-0.1,0.2-0.3,0.2-0.5,0.3c-0.5,0.4-1.1,0.5-1.5,1c-0.2,0.2-0.4,0.4-0.7,0.5
	c-0.5,0.1-0.8,0.4-0.9,1c-0.1,0.8-0.4,1.7-0.7,2.5c-0.4,1.3-0.9,2.6-1.4,3.9c-0.1,0.2-0.2,0.4-0.3,0.7c-0.1,0.3-0.3,0.6-0.2,1
	c0,0,0,0.1,0,0.2c-0.2,0.4-0.4,0.8-0.5,1.2c-0.2,0.5-0.5,1-0.7,1.5c-0.1,0.2-0.2,0.4-0.3,0.5c-0.2,0.3-0.4,0.5-0.4,0.8
	c0,0.1-0.1,0.1-0.1,0.2c-0.4,0.6-0.9,1.2-1.3,1.8c0,0-0.1,0.1-0.1,0.1c-0.4,0.4-0.9,0.8-1.3,1.2c-0.8,0.7-1.7,0.9-2.8,0.7
	c-0.3-0.1-0.6-0.1-1-0.2c-1-0.3-1.8-0.8-2.3-1.7c-0.3-0.5-0.4-1-0.4-1.6c0.1-1,0.2-2,0.5-3c0.3-0.8,0.7-1.6,1.2-2.4
	c0.5-0.6,0.9-1.2,1.4-1.8c0.3-0.4,0.6-0.8,1-1.1c0.5-0.5,1-1,1.6-1.4c0.3-0.2,0.5-0.4,0.8-0.7c0.9-0.8,1.8-1.6,2.9-2.3
	c0.5-0.3,0.9-0.7,1-1.3c0-0.1,0-0.2,0-0.4c-0.2,0.1-0.2,0.2-0.3,0.2c-0.2,0.1-0.4,0.2-0.6,0.3c-0.3,0.1-0.6,0.1-0.9,0.2
	c-1.1,0.3-2.1,0.2-3.1-0.4c-0.3-0.2-0.5-0.6-0.7-0.8c0,0-0.1-0.1-0.1-0.1c-0.6,0.4-1.1,0.9-1.7,1.3c-0.8,0.5-1.6,0.9-2.5,1.1
	c-0.4,0.1-0.7,0-1-0.1C68.3,23.1,68,23,67.6,23c-0.5,0-0.9-0.1-1.3-0.4c-0.3-0.2-0.7-0.4-1-0.5c-0.1-0.1-0.2-0.1-0.4,0
	c-0.2,0-0.4,0.1-0.5,0.2c-0.5,0.2-1.1,0.5-1.6,0.7c-0.4,0.2-0.9,0.3-1.4,0.4c-0.6,0.1-1.2,0-1.7-0.4c-0.1-0.1-0.3-0.2-0.5-0.3
	c-0.5-0.2-0.8-0.6-1-1.1c-0.3-0.6-0.5-1.3-0.3-2c0.1-0.4,0.2-0.8,0.3-1.3c0-0.1,0-0.3,0-0.4c-0.3,0-0.6,0.1-0.8,0.3
	c-0.3,0.2-0.6,0.5-0.9,0.7c-0.2,0.1-0.3,0.3-0.3,0.5c-0.1,0.3-0.4,0.5-0.6,0.8c-0.1,0.1-0.2,0.2-0.3,0.3c-0.4,0.8-1.2,1.2-1.9,1.6
	c-0.2,0.1-0.4,0-0.6,0c-0.3-0.1-0.6-0.2-0.9-0.3c-0.3-0.1-0.6-0.4-0.7-0.7c-0.3-1-0.4-2,0.1-3c0-0.6,0.3-1,0.6-1.5
	c0.1-0.3,0.3-0.6,0.4-0.9c0.1-0.3,0.2-0.7,0.3-1c0-0.1,0-0.2,0-0.3c-0.2-0.1-0.4,0-0.5,0.1c-0.3,0.3-0.6,0.6-0.9,0.8
	c-0.1,0.1-0.3,0.3-0.4,0.3c-0.5,0.2-0.8,0.5-1,1c-0.2,0.3-0.3,0.5-0.5,0.8c-0.6,0.9-1.2,1.8-1.8,2.6c-0.4,0.6-0.8,1.1-1.2,1.7
	c-0.1,0.1-0.2,0.2-0.3,0.2c-0.3,0.2-0.7,0.5-1,0.7c-0.5,0.3-0.9,0.4-1.5,0.4c-1-0.1-1.7-0.7-2.1-1.5c-0.1-0.2-0.2-0.5-0.2-0.7
	c0-0.1-0.1-0.2-0.2-0.4c-0.4,0.4-0.8,0.6-1,1c-0.1,0.2-0.3,0.3-0.4,0.4c-0.2,0.2-0.3,0.3-0.5,0.5c-0.1,0.1-0.2,0.1-0.3,0.1
	c-0.2,0.1-0.4,0.2-0.6,0.3c-0.2,0.1-0.5,0.3-0.7,0.4c-0.1,0.1-0.3,0.1-0.4,0.2c-0.7,0.6-1.5,0.7-2.4,0.6c-0.5-0.1-1.1-0.2-1.6-0.3
	c-0.3-0.1-0.6-0.3-0.8-0.5c-0.5-0.6-1-1.2-1.2-2c0,0-0.1,0-0.1,0c-0.8,0.6-1.5,1.4-1.7,2.5c-0.2,0.7-0.4,1.4-0.7,2
	c-0.2,0.4-0.3,0.9-0.5,1.3c-0.2,0.6-0.4,1.1-0.7,1.7c-0.6,1.2-1.2,2.5-1.8,3.7c-0.2,0.5-0.5,0.9-0.8,1.4c-0.3,0.6-0.6,1.2-1,1.7
	c-0.4,0.7-0.7,1.4-1.2,2c-0.2,0.7-0.7,1-1.2,1.5c-0.1,0.1-0.2,0.3-0.3,0.4c-0.5,0.4-1.1,0.7-1.7,0.8c-0.6,0-1.2,0-1.7-0.2
	c-0.6-0.3-1.1-0.6-1.3-1.3c-0.1-0.4-0.3-0.8-0.5-1.2c0-0.1-0.1-0.3-0.1-0.4c0-1.2,0.1-2.5,0.5-3.7c0.4-1.3,0.9-2.5,1.5-3.6
	c0.3-0.6,0.8-1.2,1.3-1.8c0.5-0.6,1-1.1,1.5-1.6c0.4-0.4,0.9-0.7,1.3-1c0.8-0.6,1.5-1.3,2.3-1.9c0.3-0.3,0.7-0.5,1-0.8
	c0.7-0.7,1.1-1.5,1.3-2.4c0,0,0-0.1,0-0.1c-0.3,0.1-0.6,0.3-0.9,0.6c-0.5,0.5-0.9,1-1.6,1.4c-0.9,0.5-1.7,0.3-2.4-0.3
	c-0.3-0.2-0.6-0.5-0.7-0.9c-0.1-0.4-0.3-0.7-0.5-1.1c-0.2,0.2-0.4,0.3-0.6,0.5c-0.8,0.7-1.6,1.4-2.5,2.1c-0.7,0.5-1.4,0.8-2.2,1.1
	c-1.4,0.4-2.8,0.5-4.3,0.2c-1.5-0.2-2.8-0.8-4-1.7c-0.2-0.2-0.4-0.4-0.6-0.7c0,0-0.1-0.1-0.1-0.1c0.2-0.3,0-0.7,0-1
	c0-0.7,0.2-1.4,0.6-1.9c0.2-0.3,0.4-0.6,0.7-0.9c0.4-0.5,1-0.7,1.6-0.7c1,0,2-0.1,3-0.2c0.2,0,0.5-0.2,0.7-0.3
	c0.4-0.2,0.7-0.4,1.1-0.6c0.2-0.1,0.3-0.3,0.4-0.5c0.3-1,0.6-2.1,0.6-3.1c0-1.4,0-2.7-0.4-4.1c-0.1-0.4-0.2-0.9-0.4-1.3
	c-0.1-0.2-0.3-0.5-0.4-0.7c-0.2-0.2-0.3-0.2-0.5,0c-0.2,0.2-0.3,0.3-0.4,0.6c-0.2,0.5-0.6,1-0.9,1.5c0,0-0.1,0.1-0.1,0.1
	c-0.3,0.4-0.5,0.9-0.8,1.3c-0.3,0.5-0.6,1.1-0.9,1.6c-0.2,0.3-0.4,0.5-0.5,0.8c-0.1,0.2-0.3,0.4-0.4,0.6c-0.2,0.2-0.3,0.4-0.5,0.7
	c-0.1,0.2-0.3,0.4-0.4,0.6c-0.3,0.6-0.7,1.2-1,1.8 M78.6,25.3C78.6,25.3,78.6,25.3,78.6,25.3c-0.2,0-0.3,0.1-0.4,0.2
	c-0.4,0.4-0.9,0.8-1.3,1.2c-0.2,0.1-0.4,0.2-0.5,0.4c-0.7,0.9-1.5,1.7-2,2.7c-0.1,0.3-0.3,0.5-0.4,0.7c-0.4,0.5-0.6,1-0.8,1.5
	c-0.2,0.4-0.3,0.9-0.2,1.3c0.1,0.5,0.3,0.6,0.7,0.3c1-0.6,1.6-1.6,2.2-2.5c0.3-0.4,0.6-0.9,0.9-1.4c0.4-0.6,0.7-1.2,1-1.8
	c0.4-0.7,0.7-1.4,0.9-2.2C78.6,25.6,78.6,25.4,78.6,25.3z M23.3,27.1c-0.2,0.2-0.4,0.4-0.6,0.5c-0.8,0.6-1.3,1.3-1.9,2
	c-0.5,0.7-1,1.5-1.3,2.2c-0.3,0.7-0.6,1.4-0.6,2.1c0,0.2,0,0.5,0.2,0.7C21.4,32.7,22.8,30.3,23.3,27.1z M70.4,13.6
	c-0.1,0-0.1,0-0.1,0c-0.5,0.3-1,0.6-1.3,1.1c-0.1,0.2-0.2,0.3-0.4,0.5c-0.8,0.8-1.3,1.8-1.8,2.8c0,0.1-0.1,0.2-0.1,0.4
	c0.3-0.1,0.6-0.2,0.8-0.2c0.1-0.1,0.3-0.1,0.4-0.2c0.4-0.3,0.8-0.7,1.1-1.1c0.2-0.3,0.4-0.5,0.6-0.8c0.4-0.6,0.8-1.2,0.7-2
	c0-0.1,0-0.2,0-0.2C70.4,13.8,70.4,13.7,70.4,13.6z"/>
<path fill="#FFFFFF" d="M24.1,26.9c0,0.1,0,0.3,0,0.4c-0.2,0.8-0.4,1.5-0.8,2.2c-0.3,0.6-0.6,1.2-1,1.8c-0.3,0.5-0.5,1-0.8,1.4
	c-0.6,0.9-1.2,1.9-2.2,2.5c-0.4,0.3-0.6,0.2-0.7-0.3c-0.1-0.5,0-0.9,0.2-1.3c0.2-0.5,0.4-1,0.8-1.5c0.2-0.2,0.3-0.5,0.4-0.7
	c0.5-1,1.3-1.9,2-2.7c0.1-0.2,0.3-0.3,0.5-0.4c0.4-0.4,0.8-0.8,1.3-1.2C23.8,27,23.9,26.9,24.1,26.9C24,26.9,24,26.9,24.1,26.9z"/>
<path fill="#FFFFFF" d="M70.2,12.5c0,0.1,0,0.2,0,0.3c0,0.1-0.1,0.2,0,0.2c0.1,0.8-0.3,1.4-0.7,2c-0.2,0.3-0.4,0.6-0.6,0.8
	c-0.3,0.4-0.7,0.8-1.1,1.2c-0.1,0.1-0.3,0.2-0.4,0.2c-0.2,0.1-0.5,0.2-0.8,0.3c0-0.2,0-0.3,0.1-0.4c0.4-1.1,1-2,1.7-2.9
	c0.1-0.1,0.2-0.3,0.3-0.5c0.3-0.5,0.8-0.9,1.3-1.2C70.1,12.6,70.1,12.6,70.2,12.5z"/>
<path d="M148.2,11l-9,2.8c-0.2,0-0.3,0.1-0.4,0.2c-0.1,0.2-0.4,0.4-0.6,0.5c-0.3,0.2-0.4,0.5-0.5,0.8c-0.2,0.6-0.3,1.1-0.5,1.7
	c-0.1,0.2-0.1,0.4-0.2,0.6c-0.2,0.3-0.2,0.6-0.4,1c-0.1,0.3-0.3,0.5-0.4,0.7c0,0.1-0.1,0.1-0.1,0.2c-0.1,0.6-0.5,1.1-0.8,1.6
	c-0.2,0.4-0.5,0.7-0.7,1c-0.5,0.6-1.1,1.1-1.8,1.5c-0.2,0.2-0.5,0.1-0.8,0c-0.2-0.1-0.4-0.1-0.6-0.1c-0.9-0.1-1.7-0.4-2.2-1.2
	c-0.1-0.2-0.2-0.5-0.2-0.7c-0.2-0.8-0.2-1.6-0.2-2.5c0-0.3,0-0.5,0-0.8c0,0,0,0-0.1,0c-0.4,0.2-0.7,0.5-0.8,0.9
	c-0.2,0.7-0.4,1.3-0.7,1.9c-0.3,0.6-0.6,1.2-1,1.8c-0.1,0.1-0.2,0.3-0.2,0.5c-0.1,0.2-0.3,0.4-0.5,0.5c-0.1,0-0.2,0.1-0.2,0.2
	c-0.3,0.3-0.6,0.3-0.9,0.2c-0.2-0.1-0.4-0.1-0.7-0.2c-0.6-0.2-1-0.6-1.2-1.2c-0.3-0.8-0.3-1.7-0.2-2.5c0.1-0.8,0.1-1.6,0.4-2.3
	c0.1-0.3,0.2-0.5,0.3-0.8c0.1-0.3,0.2-0.5,0.2-0.8c0.1-0.2,0.1-0.4,0.2-0.6c0.2-0.5,0.3-1.1,0.5-1.6c0-0.1,0.1-0.2,0.1-0.3
	c0,0,0-0.1,0.1-0.2c0.1-0.4-0.2-0.7-0.5-0.8l-0.2,0c-0.3-0.1-1.2-0.3-1.4,0c-0.2,0.3-0.2,2.2-0.3,2.6c-0.2,0.5-0.3,0.9-0.5,1.4
	c-0.1,0.2-0.1,0.3-0.2,0.5c-0.2,0.4-0.3,0.9-0.5,1.3c-0.2,0.3-0.2,0.6-0.3,1c-0.1,0.3-0.2,0.7-0.5,1c-0.2,0.3-0.3,0.7-0.5,1
	c-0.2,0.4-0.5,0.8-0.9,1.1c-0.1,0.1-0.3,0.2-0.4,0.3c-0.4,0.4-1,0.6-1.5,0.8c-0.4,0.2-0.8,0.2-1.2,0.3c0,0-0.1,0-0.1,0
	c-0.5-0.1-0.9-0.2-1.4-0.4c-0.4-0.2-0.8-0.4-1.2-0.7c0,0,0,0,0,0c-0.1-0.3-0.3-0.4-0.5-0.5c-0.1,0-0.1-0.2-0.2-0.3
	c-0.3-0.4-0.5-0.9-0.5-1.5c0-0.1,0-0.2,0-0.2c-0.1-0.4,0-0.7,0-1.1c0.2-1.4,0.8-2.7,1.6-3.9c0.2-0.4,0.5-0.8,0.8-1.2
	c0.2-0.3,0.5-0.6,0.8-0.9c0.2-0.2,0.3-0.4,0.5-0.6c0.5-0.5,1-1.1,1.6-1.6c0.3-0.3,0.7-0.5,1-0.8c0.2-0.1,0.3-0.1,0.5-0.2
	c0.2-0.1,0.4-0.1,0.5-0.2c0,0,0.1,0,0.2-0.1c0.2,0,0.4,0.1,0.6,0c0,0,0,0,0.1,0c0.2,0.2,0.5,0.1,0.7,0.2c0.8,0.1,1.6,0.2,2.4,0.2
	c0.1,0,0.3,0,0.3,0.1c0.2,0.2,0.5,0.2,0.8,0.1c0.3-0.1,0.6,0,0.9,0.2c0.1,0.1,0.3,0.1,0.5,0.2c0.3,0.1,0.5,0.2,0.7,0.4
	c0.4,0.4,0.5,0.9,0.6,1.4c0.1,0.5,0.1,1,0.3,1.5c0.1,0.3,0.2,0.6,0.3,0.8c0.1,0.3,0.4,0.3,0.6,0c0.3-0.4,0.6-0.8,1-1.2
	c0.7-0.7,1.2-1.5,1.9-2.1c0.3-0.2,0.6-0.4,1-0.4c0.1,0,0.3,0.1,0.4,0.1c0.4,0.2,0.8,0.5,0.8,1c0,0.4,0,0.8,0,1.2
	c0,0.4,0.1,0.8,0,1.2c0,0.6,0,1.2,0.2,1.8c-0.1,0.3,0.2,0.5,0.2,0.7c0.1,0.2,0.3,0.4,0.6,0.4c0.1,0,0.2,0,0.3-0.1
	c0.3-0.2,0.5-0.5,0.7-0.8c0.4-0.8,0.8-1.7,1.1-2.6c0.1-0.3,0.3-0.6,0.4-0.9c0.1-0.2,0.1-0.4,0.1-0.6c0-0.2,0.1-0.3,0.2-0.5
	c0.1-0.2,0.2-0.4,0.3-0.6c0.1-0.3,0.3-0.5,0.7-0.6c0.6-0.1,1.3,0,1.9,0c0.4,0,2.5-0.2,3.2-0.2c0.1,0,0.3,0,0.4-0.1
	c0.1,0,0.2-0.1,0.2,0 M141.6,25.3 M118.1,12.9c-0.4,0.3-0.8,0.6-1,1c-0.1,0.2-0.3,0.5-0.4,0.7c-0.2,0.3-0.5,0.6-0.7,0.9
	c-0.2,0.3-0.5,0.5-0.7,0.9c-0.2,0.4-0.4,0.8-0.6,1.2c-0.2,0.4-0.3,0.9-0.4,1.4c0,0.1,0,0.2,0,0.3c0,0.3,0,0.3,0.3,0.4
	c0.1,0,0.3,0.1,0.4,0.1c0.1,0,0.2,0,0.3,0c0.4-0.2,0.9-0.4,1.3-0.7c0.1-0.1,0.3-0.2,0.4-0.3c0.2-0.3,0.4-0.6,0.5-0.9
	c0.3-0.7,0.5-1.5,0.8-2.2c0-0.1,0-0.1,0-0.2c0-0.1,0-0.3,0-0.4c0-0.1,0-0.3,0-0.4c0-0.5-0.1-0.9-0.1-1.4
	C118.2,13.1,118.1,13,118.1,12.9z"/>
<path d="M109.3,18.7c0.2,0,0.4,0,0.5-0.1c0.4-0.2,0.7-0.3,1-0.6c0.4-0.4,0.9-0.7,1.3-1.1c0.1,0,0.1-0.1,0.2-0.2
	c0.2-0.2,0.3-0.4,0.5-0.4c0.1,0,0.2-0.2,0.3-0.3c0,0,0.1,0,0.1-0.1c0,0.1,0.1,0.3,0.1,0.4c0,0.1,0,0.3,0.1,0.4
	c0.1,0.2,0,0.4-0.1,0.6c-0.2,0.3-0.3,0.7-0.5,1c-0.2,0.7-0.6,1.1-1,1.7c-0.3,0.5-0.8,0.9-1.2,1.2c-0.4,0.3-0.7,0.6-1.1,0.9
	c-0.1,0.1-0.3,0.3-0.4,0.4c-0.6,0.5-1.2,0.4-1.9,0.1c-0.5-0.3-0.9-0.7-1.2-1.1c0,0-0.1-0.1-0.1-0.2c-0.1,0.1-0.2,0.1-0.3,0.1
	c-0.5,0.4-0.9,0.8-1.4,1.1c-0.8,0.6-1.7,1.2-2.6,1.6c-0.5,0.2-1,0.5-1.4,0.7c-0.2,0.1-0.4,0.1-0.6,0.2c0,0,0,0-0.1,0
	c-0.3,0.2-0.5,0.1-0.8,0c0,0-0.1,0-0.2,0c-0.2,0-0.4,0-0.5-0.1c-0.1-0.1-0.2,0-0.3-0.1c-0.2,0-0.4,0-0.5-0.1
	c-0.7-0.3-1.3-0.7-1.9-1.2c-0.5-0.4-0.7-1-1-1.5c-0.3-0.6-0.3-1.2-0.3-1.8c0-0.4,0.1-0.8,0.2-1.1c0.2-0.8,0.6-1.4,1-2.1
	c0.3-0.4,0.5-0.8,0.9-1.1c0.4-0.4,0.8-0.8,1.3-1.1c0.3-0.2,0.6-0.5,1-0.7c0.4-0.3,0.9-0.5,1.3-0.8c0.5-0.3,0.9-0.5,1.4-0.8
	c0.9-0.6,1.9-1,2.9-1.4c0.2-0.1,0.4-0.2,0.6-0.3c0.3-0.1,0.5-0.1,0.6,0.2c0.1,0.5,0.3,1,0.4,1.4c0,0,0,0.1,0,0.1
	c0.1,0.5-0.1,0.8-0.5,1.1c-0.4,0.2-0.7,0.5-1,0.8c-0.2,0.2-0.4,0.4-0.6,0.5c-0.4,0.3-0.9,0.7-1.3,1c-0.1,0.1-0.3,0.3-0.4,0.4
	c-0.4,0.3-0.9,0.6-1.3,1c-0.5,0.5-1,1.1-1.4,1.7c-0.1,0.2-0.3,0.4-0.4,0.6c-0.2,0.3-0.1,0.6,0,0.9c0.1,0.2,0.3,0.4,0.5,0.5
	c0.4,0.1,0.8,0.1,1.1,0c0.6,0,1-0.2,1.5-0.6c0.5-0.4,1-0.7,1.5-1.1c0.3-0.3,0.6-0.7,0.9-1c0.1-0.2,0.3-0.3,0.4-0.5
	c0.1-0.3,0.2-0.6,0.3-0.9c0.2-0.7,0.4-1.4,0.7-2.1c0.1-0.3,0.3-0.6,0.5-0.8c0.3-0.6,0.6-1.1,0.9-1.7c0.2-0.4,0.5-0.8,0.7-1.2
	c0.3-0.6,0.5-1.2,0.8-1.8c0.2-0.4,0.4-0.9,0.5-1.3c0.1-0.2,0.1-0.3,0.2-0.5c0.2-0.8,0.7-1.5,1.1-2.2c0.4-0.6,0.8-1.3,1.2-2
	c0.2-0.4,0.4-0.9,0.7-1.3c0.1-0.2,0.4-0.3,0.6-0.3c0.6,0.1,1.2-0.1,1.9-0.2c0.5-0.1,0.9-0.2,1.3-0.3c0.2,0,0.3-0.1,0.5-0.1
	c0.3,0,0.4-0.1,0.6,0.3c0,0.1,0,0.1,0.1,0.2c0.2,0.2,0.1,0.4,0,0.6c-0.1,0.2-0.2,0.4-0.3,0.6c-0.2,0.3-0.5,0.6-0.7,0.9
	c-0.2,0.3-0.4,0.7-0.6,1c-0.1,0.2-0.2,0.4-0.4,0.6c-0.2,0.3-0.4,0.5-0.5,0.9c-0.2,0.4-0.4,0.8-0.6,1.2c-0.4,0.8-0.7,1.5-1.2,2.2
	c-0.2,0.3-0.4,0.6-0.6,1c-0.1,0.3-0.2,0.5-0.3,0.8c-0.2,0.6-0.5,1.1-0.7,1.7c0,0.1-0.1,0.2-0.1,0.3c-0.2,0.5-0.4,0.9-0.6,1.4
	c0,0,0,0.1,0,0.1c0,0.6-0.4,1-0.6,1.5c-0.1,0.3-0.3,0.6-0.4,0.9c-0.1,0.4-0.2,0.7-0.3,1.1C109.3,18.2,109.3,18.4,109.3,18.7z"/>
<path d="M153.4,18.7c0.2,0,0.4,0,0.5-0.1c0.4-0.2,0.7-0.3,1-0.6c0.4-0.4,0.9-0.7,1.3-1.1c0.1,0,0.1-0.1,0.2-0.2
	c0.2-0.2,0.3-0.4,0.5-0.4c0.1,0,0.2-0.2,0.3-0.3c0,0,0.1,0,0.1-0.1c0,0.1,0.1,0.3,0.1,0.4c0,0.1,0,0.3,0.1,0.4
	c0.1,0.2,0,0.4-0.1,0.6c-0.2,0.3-0.3,0.7-0.5,1c-0.2,0.7-0.6,1.1-1,1.7c-0.3,0.5-0.8,0.9-1.2,1.2c-0.4,0.3-0.7,0.6-1.1,0.9
	c-0.1,0.1-0.3,0.3-0.4,0.4c-0.6,0.5-1.2,0.4-1.9,0.1c-0.5-0.3-0.9-0.7-1.2-1.1c0,0-0.1-0.1-0.1-0.2c-0.1,0.1-0.2,0.1-0.3,0.1
	c-0.5,0.4-0.9,0.8-1.4,1.1c-0.8,0.6-1.7,1.2-2.6,1.6c-0.5,0.2-1,0.5-1.4,0.7c-0.2,0.1-0.4,0.1-0.6,0.2c0,0,0,0-0.1,0
	c-0.3,0.2-0.5,0.1-0.8,0c0,0-0.1,0-0.2,0c-0.2,0-0.4,0-0.5-0.1c-0.1-0.1-0.2,0-0.3-0.1c-0.2,0-0.4,0-0.5-0.1
	c-0.7-0.3-1.3-0.7-1.9-1.2c-0.5-0.4-0.7-1-1-1.5c-0.3-0.6-0.3-1.2-0.3-1.8c0-0.4,0.1-0.8,0.2-1.1c0.2-0.8,0.6-1.4,1-2.1
	c0.3-0.4,0.5-0.8,0.9-1.1c0.4-0.4,0.8-0.8,1.3-1.1c0.3-0.2,0.6-0.5,1-0.7c0.4-0.3,0.9-0.5,1.3-0.8c0.5-0.3,0.9-0.5,1.4-0.8
	c0.9-0.6,1.9-1,2.9-1.4c0.2-0.1,0.4-0.2,0.6-0.3c0.3-0.1,0.5-0.1,0.6,0.2c0.1,0.5,0.3,1,0.4,1.4c0,0,0,0.1,0,0.1
	c0.1,0.5-0.1,0.8-0.5,1.1c-0.4,0.2-0.7,0.5-1,0.8c-0.2,0.2-0.4,0.4-0.6,0.5c-0.4,0.3-0.9,0.7-1.3,1c-0.1,0.1-0.3,0.3-0.4,0.4
	c-0.4,0.3-0.9,0.6-1.3,1c-0.5,0.5-1,1.1-1.4,1.7c-0.1,0.2-0.3,0.4-0.4,0.6c-0.2,0.3-0.1,0.6,0,0.9c0.1,0.2,0.3,0.4,0.5,0.5
	c0.4,0.1,0.8,0.1,1.1,0c0.6,0,1-0.2,1.5-0.6c0.5-0.4,1-0.7,1.5-1.1c0.3-0.3,0.6-0.7,0.9-1c0.1-0.2,0.3-0.3,0.4-0.5
	c0.1-0.3,0.2-0.6,0.3-0.9c0.2-0.7,0.4-1.4,0.7-2.1c0.1-0.3,0.3-0.6,0.5-0.8c0.3-0.6,0.6-1.1,0.9-1.7c0.2-0.4,0.5-0.8,0.7-1.2
	c0.3-0.6,0.5-1.2,0.8-1.8c0.2-0.4,0.4-0.9,0.5-1.3c0.1-0.2,0.1-0.3,0.2-0.5c0.2-0.8,0.7-1.5,1.1-2.2c0.4-0.6,0.8-1.3,1.2-2
	c0.2-0.4,0.4-0.9,0.7-1.3c0.1-0.2,0.4-0.3,0.6-0.3c0.6,0.1,1.2-0.1,1.9-0.2c0.5-0.1,0.9-0.2,1.3-0.3c0.2,0,0.3-0.1,0.5-0.1
	c0.3,0,0.4-0.1,0.6,0.3c0,0.1,0,0.1,0.1,0.2c0.2,0.2,0.1,0.4,0,0.6c-0.1,0.2-0.2,0.4-0.3,0.6c-0.2,0.3-0.5,0.6-0.7,0.9
	c-0.2,0.3-0.4,0.7-0.6,1c-0.1,0.2-0.2,0.4-0.4,0.6c-0.2,0.3-0.4,0.5-0.5,0.9c-0.2,0.4-0.4,0.8-0.6,1.2c-0.4,0.8-0.7,1.5-1.2,2.2
	c-0.2,0.3-0.4,0.6-0.6,1c-0.1,0.3-0.2,0.5-0.3,0.8c-0.2,0.6-0.5,1.1-0.7,1.7c0,0.1-0.1,0.2-0.1,0.3c-0.2,0.5-0.4,0.9-0.6,1.4
	c0,0,0,0.1,0,0.1c0,0.6-0.4,1-0.6,1.5c-0.1,0.3-0.3,0.6-0.4,0.9c-0.1,0.4-0.2,0.7-0.3,1.1C153.3,18.2,153.4,18.4,153.4,18.7z"/>
<polyline points="139.1,13.8 143.7,13.6 148.2,11 "/>
</svg>
