<?xml version="1.0" encoding="utf-8"?>
<!-- Generator: Adobe Illustrator 19.1.0, SVG Export Plug-In . SVG Version: 6.00 Build 0)  -->
<!DOCTYPE svg PUBLIC "-//W3C//DTD SVG 1.1//EN" "http://www.w3.org/Graphics/SVG/1.1/DTD/svg11.dtd">
<svg version="1.1" id="Layer_1" xmlns="http://www.w3.org/2000/svg" xmlns:xlink="http://www.w3.org/1999/xlink" x="0px" y="0px"
	 width="161.1px" height="12.9px" viewBox="0 0 161.1 12.9" enable-background="new 0 0 161.1 12.9" xml:space="preserve">
<g>
	<path d="M8.8,0.5c0.8,0.3,1.6,0.9,2.3,1.7c0,0,0,0.1,0,0.2L9.4,4.3c0,0.1-0.1,0-0.2,0C8.8,3.7,8.3,3.3,7.8,3
		c-0.6-0.3-1.2-0.4-2-0.4c-0.7,0-1.2,0.1-1.5,0.3C3.9,3.1,3.7,3.4,3.7,3.8c0,0.3,0.2,0.6,0.6,0.8c0.4,0.2,1,0.4,1.9,0.5
		c1.7,0.3,3,0.8,3.7,1.4S11,8,11,9.1c0,0.8-0.2,1.5-0.7,2.1c-0.5,0.6-1.1,1-1.9,1.3c-0.8,0.3-1.7,0.5-2.7,0.5
		c-1.4,0-2.6-0.2-3.5-0.5C1.4,12,0.7,11.5,0,10.9c0,0,0-0.1,0-0.1l1.5-2.1c0-0.1,0.1-0.1,0.2,0c0.5,0.6,1,1.1,1.6,1.3
		c0.6,0.3,1.4,0.4,2.2,0.4c0.7,0,1.2-0.1,1.6-0.3c0.3-0.2,0.5-0.5,0.5-0.8c0-0.3-0.2-0.5-0.6-0.7C6.7,8.3,6.1,8.2,5.2,8
		c-1.1-0.2-2-0.5-2.7-0.8C1.8,6.9,1.3,6.5,0.9,6C0.5,5.5,0.3,4.9,0.3,4.1C0.3,3.3,0.5,2.6,1,2s1-1.1,1.9-1.5C3.6,0.2,4.6,0,5.7,0
		C6.9,0,7.9,0.2,8.8,0.5z"/>
	<path d="M21.7,8.2v4.4c0,0.1,0,0.1-0.1,0.1h-3c-0.1,0-0.1,0-0.1-0.1V8.2c0,0,0,0,0-0.1l-4.3-7.8c0-0.1,0-0.2,0.1-0.2h3.1
		c0,0,0.1,0,0.1,0.1l1.7,3.4c0,0,0,0,0,0l0.9,2.1l0.9-2.1l1.7-3.4c0,0,0.1-0.1,0.1-0.1H26c0.1,0,0.1,0.1,0.1,0.2L21.7,8.2
		C21.7,8.1,21.7,8.2,21.7,8.2z"/>
	<path d="M40.1,1.8c1,1.1,1.6,2.6,1.6,4.6s-0.5,3.6-1.6,4.6s-2.5,1.6-4.5,1.6h-5.2c-0.1,0-0.1,0-0.1-0.1V0.3c0-0.1,0-0.1,0.1-0.1
		h5.2C37.6,0.2,39.1,0.7,40.1,1.8z M37.6,9.3c0.5-0.6,0.7-1.6,0.7-2.8c0-1.3-0.2-2.2-0.7-2.8c-0.5-0.6-1.3-0.9-2.3-0.9h-1.6
		c-0.1,0-0.1,0-0.1,0.1v7.4c0,0.1,0,0.1,0.1,0.1h1.6C36.3,10.2,37.1,9.9,37.6,9.3z"/>
	<path d="M57.7,12.7h-3.4c0,0-0.1,0-0.1-0.1l-3.9-6.7c0,0,0,0,0,0L49.3,4h0l0.1,2.4v6.2c0,0.1,0,0.1-0.1,0.1h-2.7
		c-0.1,0-0.1,0-0.1-0.1V0.3c0-0.1,0-0.1,0.1-0.1H50c0,0,0.1,0,0.1,0.1L54,7c0,0,0,0,0,0L55,8.9h0l-0.1-2.4V0.3c0-0.1,0-0.1,0.1-0.1
		h2.7c0.1,0,0.1,0,0.1,0.1v12.3C57.8,12.7,57.7,12.7,57.7,12.7z"/>
	<path d="M73.1,10.3v2.3c0,0.1,0,0.1-0.1,0.1h-9.8c-0.1,0-0.1,0-0.1-0.1V0.3c0-0.1,0-0.1,0.1-0.1h9.5c0.1,0,0.1,0,0.1,0.1v2.3
		c0,0.1,0,0.1-0.1,0.1h-6.3c-0.1,0-0.1,0-0.1,0.1v2.3c0,0.1,0,0.1,0.1,0.1h4.9c0.1,0,0.1,0,0.1,0.1v2.1c0,0.1,0,0.1-0.1,0.1h-4.9
		c-0.1,0-0.1,0-0.1,0.1v2.3c0,0.1,0,0.1,0.1,0.1H73C73.1,10.2,73.1,10.2,73.1,10.3z"/>
	<path d="M84.1,8.2v4.4c0,0.1,0,0.1-0.1,0.1h-3c-0.1,0-0.1,0-0.1-0.1V8.2c0,0,0,0,0-0.1l-4.3-7.8c0-0.1,0-0.2,0.1-0.2h3.1
		c0,0,0.1,0,0.1,0.1l1.7,3.4c0,0,0,0,0,0l0.9,2.1l0.9-2.1l1.7-3.4c0,0,0.1-0.1,0.1-0.1h3.1c0.1,0,0.1,0.1,0.1,0.2L84.1,8.2
		C84.1,8.1,84.1,8.2,84.1,8.2z"/>
	<path d="M105.6,1.8c1,1.1,1.6,2.6,1.6,4.6s-0.5,3.6-1.6,4.6s-2.5,1.6-4.5,1.6h-5.2c-0.1,0-0.1,0-0.1-0.1V0.3c0-0.1,0-0.1,0.1-0.1
		h5.2C103.1,0.2,104.6,0.7,105.6,1.8z M103.1,9.3c0.5-0.6,0.7-1.6,0.7-2.8c0-1.3-0.2-2.2-0.7-2.8c-0.5-0.6-1.3-0.9-2.3-0.9h-1.6
		c-0.1,0-0.1,0-0.1,0.1v7.4c0,0.1,0,0.1,0.1,0.1h1.6C101.9,10.2,102.6,9.9,103.1,9.3z"/>
	<path d="M120.9,0.8c0.9,0.5,1.6,1.3,2.1,2.2s0.7,2.1,0.7,3.5c0,1.3-0.2,2.5-0.7,3.5s-1.2,1.7-2.1,2.2c-0.9,0.5-2,0.8-3.3,0.8
		s-2.4-0.3-3.3-0.8c-0.9-0.5-1.6-1.3-2.1-2.2c-0.5-1-0.7-2.1-0.7-3.5c0-1.3,0.2-2.5,0.7-3.5c0.5-1,1.2-1.7,2.1-2.2
		c0.9-0.5,2-0.8,3.3-0.8S120,0.3,120.9,0.8z M115.5,3.5c-0.5,0.7-0.7,1.6-0.7,2.9s0.2,2.2,0.7,2.9c0.5,0.7,1.2,1,2.1,1
		s1.6-0.3,2.1-1s0.7-1.6,0.7-2.9s-0.2-2.2-0.7-2.9c-0.5-0.7-1.2-1-2.1-1S116,2.9,115.5,3.5z"/>
	<path d="M134.3,12.7h-3.5c0,0-0.1,0-0.1-0.1l-3.5-12.3c0-0.1,0-0.1,0.1-0.1h3.3c0.1,0,0.1,0,0.1,0.1l1.9,9.4c0,0.1,0.2,0.1,0.2,0
		l2.1-9.4c0-0.1,0.1-0.1,0.1-0.1h2.8c0.1,0,0.1,0,0.1,0.1l2.2,9.4c0,0.1,0.2,0.1,0.2,0l1.9-9.4c0-0.1,0.1-0.1,0.1-0.1h3.1
		c0.1,0,0.1,0.1,0.1,0.1L142,12.6c0,0-0.1,0.1-0.1,0.1h-3.4c-0.1,0-0.1,0-0.1-0.1l-1.5-6c0,0,0,0,0,0l-0.6-3.1h0l-0.6,3.1
		c0,0,0,0,0,0l-1.4,6C134.4,12.7,134.3,12.7,134.3,12.7z"/>
	<path d="M159.6,1.8c1,1.1,1.6,2.6,1.6,4.6s-0.5,3.6-1.6,4.6s-2.5,1.6-4.5,1.6h-5.2c-0.1,0-0.1,0-0.1-0.1V0.3c0-0.1,0-0.1,0.1-0.1
		h5.2C157,0.2,158.5,0.7,159.6,1.8z M157.1,9.3c0.5-0.6,0.7-1.6,0.7-2.8c0-1.3-0.2-2.2-0.7-2.8c-0.5-0.6-1.3-0.9-2.3-0.9h-1.6
		c-0.1,0-0.1,0-0.1,0.1v7.4c0,0.1,0,0.1,0.1,0.1h1.6C155.8,10.2,156.6,9.9,157.1,9.3z"/>
</g>
</svg>
